<?xml version="1.0" encoding="iso-8859-1"?>
<!-- Generator: Adobe Illustrator 18.0.0, SVG Export Plug-In . SVG Version: 6.00 Build 0)  -->
<!DOCTYPE svg PUBLIC "-//W3C//DTD SVG 1.1//EN" "http://www.w3.org/Graphics/SVG/1.1/DTD/svg11.dtd">
<svg version="1.1" id="Capa_1" xmlns="http://www.w3.org/2000/svg" xmlns:xlink="http://www.w3.org/1999/xlink" x="0px" y="0px"
	 viewBox="0 0 424.008 424.008" style="enable-background:new 0 0 424.008 424.008;" xml:space="preserve">
<path d="M407.082,336.121L376.4,199.472c15.05-3.129,28.467-12.165,39.197-30.874c-48.258,58.371-120.18-16.65-183.018-32.39
	c0.061-1.869,0.096-3.752,0.096-5.65c0-0.055-0.001-0.109-0.001-0.164c5.743-3.801,9.329-9.165,9.329-15.116
	c0-3.713-1.4-7.196-3.844-10.216c2.443-3.021,3.844-6.504,3.844-10.217c0-8.37-7.088-15.586-17.314-18.911
	c-5.818-20.434-12.686-33.549-12.686-33.549s-6.867,13.115-12.686,33.549c-10.227,3.325-17.314,10.541-17.314,18.911
	c0,3.713,1.4,7.196,3.844,10.217c-2.443,3.02-3.844,6.503-3.844,10.216c0,5.95,3.586,11.314,9.329,15.116
	c0,0.055-0.001,0.109-0.001,0.164c0,1.898,0.035,3.781,0.096,5.65c-62.838,15.74-134.759,90.761-183.018,32.39
	c10.73,18.71,24.148,27.746,39.199,30.874L16.926,336.121H0c0,25.131,24.477,45.502,54.672,45.502
	c30.192,0,54.67-20.371,54.67-45.502H92.416L62.03,200.79c41.782-0.451,92.526-33.43,133.378-31.572
	c6.022,29.318,16.596,49.513,16.596,49.513s10.573-20.195,16.596-49.513c40.852-1.858,91.598,31.121,133.38,31.572l-30.388,135.331
	h-16.926c0,25.131,24.477,45.502,54.674,45.502c30.19,0,54.668-20.371,54.668-45.502H407.082z M80.478,336.121H28.864
	l25.808-114.933L80.478,336.121z M343.53,336.121l25.808-114.933l25.806,114.933H343.53z"/>
<g>
</g>
<g>
</g>
<g>
</g>
<g>
</g>
<g>
</g>
<g>
</g>
<g>
</g>
<g>
</g>
<g>
</g>
<g>
</g>
<g>
</g>
<g>
</g>
<g>
</g>
<g>
</g>
<g>
</g>
</svg>
